<svg width="67" height="32" viewBox="0 0 67 32" fill="none" xmlns="http://www.w3.org/2000/svg">
<path fill-rule="evenodd" clip-rule="evenodd" d="M1.50465 4.43062H5.71055C5.33381 4.17376 4.62455 3.84668 3.45706 3.84668C2.612 3.84668 1.97917 4.08258 1.50465 4.43062ZM6.41671 4.43062H10.8158C10.2975 4.08258 9.57192 3.84668 8.55846 3.84668C7.48836 3.84668 6.79579 4.17376 6.41671 4.43062ZM0.911011 5.01456H11.4444C11.2675 4.78747 11.0553 4.5903 10.8158 4.43062H6.41671C6.17188 4.59629 6.05781 4.73248 6.05781 4.73248C6.05781 4.73248 5.95305 4.59629 5.71055 4.43062H1.50465C1.28029 4.59638 1.08044 4.79296 0.911011 5.01456Z" fill="#CCCCCC"/>
<path fill-rule="evenodd" clip-rule="evenodd" d="M0.55896 5.5789H11.7865C11.6946 5.37844 11.5799 5.18927 11.4446 5.01514H0.910875C0.771195 5.19672 0.655184 5.388 0.55896 5.5789Z" fill="#CCCCCC"/>
<path fill-rule="evenodd" clip-rule="evenodd" d="M0.318682 6.16206H11.9908C11.9407 5.96153 11.8721 5.76606 11.786 5.57812H0.558853C0.45875 5.77678 0.380374 5.97505 0.318682 6.16206ZM0.166199 6.74639H2.8527C3.02575 6.54541 3.31093 6.36382 3.77691 6.36382C4.24329 6.36382 4.50868 6.54579 4.65922 6.74639H7.63672C7.81249 6.54541 8.10271 6.36382 8.57762 6.36382C9.02615 6.36382 9.29348 6.54579 9.45256 6.74639H12.0894C12.0715 6.54949 12.0384 6.35426 11.9905 6.16245H0.318682C0.255916 6.35378 0.204992 6.5488 0.166199 6.74639Z" fill="#CCCCCC"/>
<path fill-rule="evenodd" clip-rule="evenodd" d="M0.0960738 7.31035H2.59673V7.26999C2.59673 7.26999 2.63941 6.99413 2.8528 6.74658H0.166301C0.104998 7.06125 0.0960738 7.26999 0.0960738 7.26999V7.31035ZM4.85759 7.31035H7.37842V7.26999C7.37842 7.26999 7.42149 6.99413 7.6376 6.74658H4.6601C4.77265 6.89969 4.84109 7.08072 4.85798 7.26999V7.31035H4.85759ZM9.67848 7.31035H12.0992V7.26999C12.0992 7.26999 12.1186 7.06086 12.0899 6.74658H9.45305C9.64782 6.99413 9.67848 7.26999 9.67848 7.26999V7.31035ZM0.0949097 7.89428H2.59673V7.31035H0.0960738L0.0949097 7.89428ZM4.85759 7.89428H7.37842V7.31035H4.85759V7.89428ZM9.67848 7.89428H12.0992V7.31035H9.67848V7.89428Z" fill="#CCCCCC"/>
<path fill-rule="evenodd" clip-rule="evenodd" d="M0.093776 8.47896H2.59714V7.89502H0.0953283L0.093776 8.47896ZM4.85762 8.47896H7.37845V7.89502H4.85762V8.47896ZM9.67851 8.47896H12.0992V7.89502H9.67851V8.47896ZM0.0922241 9.04272H2.59676V8.47896H0.0933882L0.0922241 9.04272ZM4.85762 9.04272H7.37845V8.47896H4.85762V9.04272ZM9.67851 9.04272H12.0992V8.47896H9.67851V9.04272Z" fill="#CCCCCC"/>
<path fill-rule="evenodd" clip-rule="evenodd" d="M0.0914961 9.62593H2.59719V9.04199H0.0922721L0.0914961 9.62593ZM4.85767 9.62593H7.3785V9.04199H4.85767V9.62593ZM9.67855 9.62593H12.0993V9.04199H9.67855V9.62593ZM0.090332 10.1897H2.59719V9.62593H0.0914961L0.090332 10.1897ZM4.85767 10.1897H7.3785V9.62593H4.85767V10.1897ZM9.67855 10.1897H12.0993V9.62593H9.67855V10.1897Z" fill="#CCCCCC"/>
<path fill-rule="evenodd" clip-rule="evenodd" d="M0.0886885 10.7743H2.59671V10.1899H0.0898526L0.0886885 10.7743ZM4.85758 10.7743H7.37841V10.1899H4.85758V10.7743ZM9.67846 10.7743H12.0992V10.1899H9.67846V10.7743ZM0.0875244 11.3582H2.5971V10.7743H0.0890763L0.0875244 11.3582ZM4.85758 11.3582H7.37841V10.7743H4.85758V11.3582ZM9.67846 11.3582H12.0992V10.7743H9.67846V11.3582Z" fill="#CCCCCC"/>
<path fill-rule="evenodd" clip-rule="evenodd" d="M0.0863037 11.9217H2.59704V11.3579H0.0874678L0.0863037 11.9217ZM4.85752 11.9217H7.37835V11.3579H4.85752V11.9217ZM9.67841 11.9217H12.0991V11.3579H9.67841V11.9217Z" fill="#CCCCCC"/>
<path fill-rule="evenodd" clip-rule="evenodd" d="M0.0852051 12.5062H2.59711V11.9219H0.0863688L0.0852051 12.5062ZM4.85759 12.5062H7.37842V11.9219H4.85759V12.5062ZM9.67847 12.5062H12.0992V11.9219H9.67847V12.5062Z" fill="#CCCCCC"/>
<path fill-rule="evenodd" clip-rule="evenodd" d="M0.0836182 13.0898H2.59707V12.5059H0.0851704L0.0836182 13.0898ZM4.85755 13.0898H7.37838V12.5059H4.85755V13.0898ZM9.67844 13.0898H12.0992V12.5059H9.67844V13.0898Z" fill="#CCCCCC"/>
<path fill-rule="evenodd" clip-rule="evenodd" d="M0.0829377 13.6536H2.59717V13.0898H0.0837137L0.0829377 13.6536ZM4.85765 13.6536H7.37848V13.0898H4.85765V13.6536ZM9.67853 13.6536H12.0993V13.0898H9.67853V13.6536ZM0.0813859 14.2375H2.59678V13.6536H0.08255L0.0813859 14.2375ZM4.85765 14.2375H7.37848V13.6536H4.85765V14.2375ZM9.67853 14.2375H12.0993V13.6536H9.67853V14.2375ZM0.079834 14.8219H2.59678V14.2379H0.0813859L0.079834 14.8219ZM4.85765 14.8219H7.37848V14.2379H4.85765V14.8219ZM9.67853 14.8219H12.0993V14.2379H9.67853V14.8219Z" fill="#CCCCCC"/>
<path fill-rule="evenodd" clip-rule="evenodd" d="M0.0786787 15.3855H2.59679V14.8218H0.0798428L0.0786787 15.3855ZM4.85766 15.3855H7.37849V14.8218H4.85766V15.3855ZM9.67854 15.3855H12.0993V14.8218H9.67854V15.3855ZM0.0775146 15.9695H2.59679V15.3855H0.0786787L0.0775146 15.9695ZM4.85766 15.9695H7.37849V15.3855H4.85766V15.9695ZM9.67854 15.9695H12.0993V15.3855H9.67854V15.9695Z" fill="#CCCCCC"/>
<path fill-rule="evenodd" clip-rule="evenodd" d="M0.0762939 16.5537H2.59712V15.9697H0.0778462L0.0762939 16.5537ZM4.8576 16.5537H7.37843V15.9697H4.8576V16.5537ZM9.67848 16.5537H12.0992V15.9697H9.67848V16.5537Z" fill="#CCCCCC"/>
<path fill-rule="evenodd" clip-rule="evenodd" d="M0.0750777 17.117H2.59707V16.5532H0.0762414L0.0750777 17.117ZM4.85755 17.117H7.37838V16.5532H4.85755V17.117ZM9.67843 17.117H12.0992V16.5532H9.67843V17.117ZM0.0739136 17.7013H2.59707V17.117H0.0750777L0.0739136 17.7013ZM4.85755 17.7013H7.37838V17.117H4.85755V17.7013ZM9.67843 17.7013H12.0992V17.117H9.67843V17.7013Z" fill="#CCCCCC"/>
<path fill-rule="evenodd" clip-rule="evenodd" d="M0.0724576 18.2654H2.59678V17.7017H0.0736213L0.0724576 18.2654ZM4.85764 18.2654H7.37847V17.7017H4.85764V18.2654ZM9.67853 18.2654H12.0992V17.7017H9.67853V18.2654ZM0.0712935 18.8497H2.59716V18.2654H0.0728454L0.0712935 18.8497ZM4.85764 18.8497H7.37847V18.2654H4.85764V18.8497ZM9.67853 18.8497H12.0992V18.2654H9.67853V18.8497ZM0.0701294 19.4333H2.59716V18.8497H0.0712935L0.0701294 19.4333ZM4.85764 19.4333H7.37847V18.8497H4.85764V19.4333ZM9.67853 19.4333H12.0992V18.8497H9.67853V19.4333Z" fill="#CCCCCC"/>
<path fill-rule="evenodd" clip-rule="evenodd" d="M0.0684859 19.9981H2.59707V19.4336H0.0700378L0.0684859 19.9981ZM4.85755 19.9981H7.37838V19.4336H4.85755V19.9981ZM9.67844 19.9981H12.0992V19.4336H9.67844V19.9981ZM0.0673218 20.5817H2.59669V19.9981H0.0680977L0.0673218 20.5817ZM4.85755 20.5817H7.37838V19.9981H4.85755V20.5817ZM9.67844 20.5817H12.0992V19.9981H9.67844V20.5817Z" fill="#CCCCCC"/>
<path fill-rule="evenodd" clip-rule="evenodd" d="M0.0661881 21.1654H2.59672V20.5811H0.0673522L0.0661881 21.1654ZM4.85758 21.1654H7.37841V20.5811H4.85758V21.1654ZM9.67847 21.1654H12.0992V20.5811H9.67847V21.1654ZM0.0646362 21.7295H2.59672V21.1658H0.0661881L0.0646362 21.7295ZM4.85758 21.7295H7.37841V21.1658H4.85758V21.7295ZM9.67847 21.7295H12.0992V21.1658H9.67847V21.7295Z" fill="#CCCCCC"/>
<path fill-rule="evenodd" clip-rule="evenodd" d="M0.0639038 22.3138H2.59715V21.7295H0.0650679L0.0639038 22.3138ZM4.85763 22.3138H7.37845V21.7295H4.85763V22.3138ZM9.67851 22.3138H12.0992V21.7295H9.67851V22.3138Z" fill="#CCCCCC"/>
<path fill-rule="evenodd" clip-rule="evenodd" d="M0.0622603 22.897H2.59667V22.3135H0.063424L0.0622603 22.897ZM4.85753 22.897H7.37836V22.3135H4.85753V22.897ZM9.67842 22.897H12.0991V22.3135H9.67842V22.897ZM0.0610962 23.4608H2.59667V22.897H0.0622603L0.0610962 23.4608ZM4.85753 23.4608H7.37836V22.897H4.85753V23.4608ZM9.67842 23.4608H12.0991V22.897H9.67842V23.4608Z" fill="#CCCCCC"/>
<path fill-rule="evenodd" clip-rule="evenodd" d="M0.059945 24.0453H2.59668V23.4609H0.0611091L0.059945 24.0453ZM4.85755 24.0453H7.37838V23.4609H4.85755V24.0453ZM9.67843 24.0453H12.0992V23.4609H9.67843V24.0453ZM0.0591691 24.6296H2.59707V24.0453H0.0603332L0.0591691 24.6296ZM4.85755 24.6296H7.37838V24.0453H4.85755V24.6296ZM9.67843 24.6296H12.0992V24.0453H9.67843V24.6296ZM0.0576172 25.1933H2.59707V24.6296H0.0591691L0.0576172 25.1933ZM4.85755 25.1933H7.37838V24.6296H4.85755V25.1933ZM9.67843 25.1933H12.0992V24.6296H9.67843V25.1933Z" fill="#CCCCCC"/>
<path fill-rule="evenodd" clip-rule="evenodd" d="M0.0565186 25.7764H2.59713V25.1929H0.0576827L0.0565186 25.7764ZM4.85761 25.7764H7.37844V25.1929H4.85761V25.7764ZM9.6785 25.7764H12.0992V25.1929H9.6785V25.7764Z" fill="#CCCCCC"/>
<path fill-rule="evenodd" clip-rule="evenodd" d="M30.7243 3.60493H31.0545L30.7243 3.021V3.60493ZM30.7243 4.20905H31.3967L31.0545 3.60493H30.7243V4.20905Z" fill="#CCCCCC"/>
<path fill-rule="evenodd" clip-rule="evenodd" d="M30.7243 4.8131H31.7385L31.3967 4.20898H30.7243V4.8131ZM35.6255 4.8131H37.9861V4.22916H35.6255V4.8131Z" fill="#CCCCCC"/>
<path fill-rule="evenodd" clip-rule="evenodd" d="M30.7243 5.41749H32.0807L31.7385 4.81299H30.7243V5.41749ZM35.6255 5.41749H37.9861V4.81299H35.6255V5.41749Z" fill="#CCCCCC"/>
<path fill-rule="evenodd" clip-rule="evenodd" d="M30.7243 6.00142H32.4109L32.0807 5.41748H30.7243V6.00142ZM35.6255 6.00142H37.9861V5.41748H35.6255V6.00142Z" fill="#CCCCCC"/>
<path fill-rule="evenodd" clip-rule="evenodd" d="M30.7243 6.60558H32.7532L32.4109 6.00146H30.7243V6.60558ZM35.6255 6.60558H37.9861V6.00146H35.6255V6.60558ZM30.7243 7.20969H33.095L32.7532 6.60558H30.7243V7.20969ZM35.6255 7.20969H37.9861V6.60558H35.6255V7.20969Z" fill="#CCCCCC"/>
<path fill-rule="evenodd" clip-rule="evenodd" d="M30.7243 7.8132H33.4372L33.095 7.20947H30.7243V7.8132ZM35.6255 7.8132H37.9861V7.20947H35.6255V7.8132ZM30.7243 8.39753H33.7674L33.4368 7.8132H30.7239V8.39753H30.7243ZM35.6255 8.39753H37.9861V7.8132H35.6255V8.39753Z" fill="#CCCCCC"/>
<path fill-rule="evenodd" clip-rule="evenodd" d="M30.7243 9.00206H34.1092L33.7674 8.39795H30.7243V9.00206ZM35.6255 9.00206H37.9861V8.39795H35.6255V9.00206ZM30.7243 9.60618H34.4518L34.1092 9.00206H30.7243V9.60618ZM35.6255 9.60618H37.9861V9.00206H35.6255V9.60618Z" fill="#CCCCCC"/>
<path fill-rule="evenodd" clip-rule="evenodd" d="M30.7243 10.2105H34.7936L34.4518 9.60596H30.7243V10.2105ZM35.6255 10.2105H37.9861V9.60596H35.6255V10.2105Z" fill="#CCCCCC"/>
<path fill-rule="evenodd" clip-rule="evenodd" d="M30.7243 10.7939H35.1238L34.7932 10.21H30.7243V10.7939ZM35.6255 10.7939H37.9861V10.21H35.6255V10.7939ZM30.7243 11.398H35.4656L35.1238 10.7939H30.7243V11.398ZM35.6255 11.398H37.9861V10.7939H35.6255V11.398Z" fill="#CCCCCC"/>
<path fill-rule="evenodd" clip-rule="evenodd" d="M30.7243 12.0021H37.9861V11.3979H35.6255V11.6804L35.4656 11.3979H30.7243V12.0021ZM30.7243 12.6062H33.0445V12.0626L33.3945 12.6062H37.9861V12.0021H30.7243V12.6062Z" fill="#CCCCCC"/>
<path fill-rule="evenodd" clip-rule="evenodd" d="M30.7243 13.1909H33.0445V12.6069H30.7243V13.1909ZM33.7697 13.1909H37.9861V12.6069H33.3945L33.7697 13.1909Z" fill="#CCCCCC"/>
<path fill-rule="evenodd" clip-rule="evenodd" d="M30.7243 13.795H33.0445V13.1909H30.7243V13.795ZM34.1585 13.795H37.9861V13.1909H33.7697L34.1585 13.795Z" fill="#CCCCCC"/>
<path fill-rule="evenodd" clip-rule="evenodd" d="M30.7243 14.3985H33.0445V13.7944H30.7243V14.3985ZM34.5473 14.3985H37.9861V13.7944H34.1585L34.5473 14.3985Z" fill="#CCCCCC"/>
<path fill-rule="evenodd" clip-rule="evenodd" d="M30.7243 14.9833H33.0445V14.3989H30.7243V14.9833ZM34.9224 14.9833H37.9861V14.3989H34.5473L34.9224 14.9833Z" fill="#CCCCCC"/>
<path fill-rule="evenodd" clip-rule="evenodd" d="M30.7243 15.587H33.0445V14.9829H30.7243V15.587ZM35.3108 15.587H37.9861V14.9829H34.9224L35.3108 15.587Z" fill="#CCCCCC"/>
<path fill-rule="evenodd" clip-rule="evenodd" d="M30.7243 16.191H33.0445V15.5869H30.7243V16.191ZM35.6996 16.191H37.9861V15.5869H35.3108L35.6996 16.191ZM30.7243 16.7951H33.0445V16.191H30.7243V16.7951ZM35.7256 16.7951H37.9861V16.191H35.6996L35.7252 16.2314V16.7951H35.7256ZM30.7243 17.3795H33.0445V16.7951H30.7243V17.3795ZM35.7256 17.3795H37.9861V16.7951H35.7256V17.3795Z" fill="#CCCCCC"/>
<path fill-rule="evenodd" clip-rule="evenodd" d="M30.7243 17.983H33.0445V17.3789H30.7243V17.983ZM35.7256 17.983H37.9861V17.3789H35.7256V17.983ZM30.7243 18.5871H33.0445V17.983H30.7243V18.5871ZM35.7256 18.5871H37.9861V17.983H35.7256V18.5871Z" fill="#CCCCCC"/>
<path fill-rule="evenodd" clip-rule="evenodd" d="M30.7243 19.1918H33.0445V18.5869H30.7243V19.1918ZM35.7256 19.1918H37.9861V18.5869H35.7256V19.1918Z" fill="#CCCCCC"/>
<path fill-rule="evenodd" clip-rule="evenodd" d="M30.7243 19.7754H33.0445V19.1919H30.7243V19.7754ZM35.7256 19.7754H37.9861V19.1919H35.7256V19.7754ZM30.7243 20.3803H33.0445V19.7754H30.7243V20.3803ZM35.7256 20.3803H37.9861V19.7754H35.7256V20.3803Z" fill="#CCCCCC"/>
<path fill-rule="evenodd" clip-rule="evenodd" d="M30.7243 20.9845H33.0445V20.3804H30.7243V20.9845ZM35.7256 20.9845H37.9861V20.3804H35.7256V20.9845Z" fill="#CCCCCC"/>
<path fill-rule="evenodd" clip-rule="evenodd" d="M30.7243 21.588H33.0445V20.9839H30.7243V21.588ZM35.7256 21.588H37.9861V20.9839H35.7256V21.588ZM30.7243 22.1723H33.0445V21.588H30.7243V22.1723ZM35.7256 22.1723H37.9861V21.588H35.7256V22.1723Z" fill="#CCCCCC"/>
<path fill-rule="evenodd" clip-rule="evenodd" d="M30.7243 22.777H33.0445V22.1729H30.7243V22.777ZM35.7256 22.777H37.9861V22.1729H35.7256V22.777Z" fill="#CCCCCC"/>
<path fill-rule="evenodd" clip-rule="evenodd" d="M30.7243 23.3805H33.0445V22.7764H30.7243V23.3805ZM35.7256 23.3805H37.9861V22.7764H35.7256V23.3805Z" fill="#CCCCCC"/>
<path fill-rule="evenodd" clip-rule="evenodd" d="M30.7243 23.9845H33.0445V23.3804H30.7243V23.9845ZM35.7256 23.9845H37.9861V23.3804H35.7256V23.9845Z" fill="#CCCCCC"/>
<path fill-rule="evenodd" clip-rule="evenodd" d="M30.7243 24.5692H33.0445V23.9849H30.7243V24.5692ZM35.7256 24.5692H37.9861V23.9849H35.7256V24.5692ZM30.7243 25.1733H33.0445V24.5692H30.7243V25.1733ZM35.7256 25.1733H37.9861V24.5692H35.7256V25.1733Z" fill="#CCCCCC"/>
<path fill-rule="evenodd" clip-rule="evenodd" d="M30.7243 25.777H33.0445V25.1729H30.7243V25.777ZM35.7256 25.777H37.9861V25.1729H35.7256V25.777Z" fill="#CCCCCC"/>
<path fill-rule="evenodd" clip-rule="evenodd" d="M51.9572 0.846225H53.8099V0C53.8099 0 53.0641 0.255303 51.9572 0.846225Z" fill="#CCCCCC"/>
<path fill-rule="evenodd" clip-rule="evenodd" d="M50.5247 1.69164H53.8098V0.846191H51.9571C51.4677 1.10726 50.9898 1.38934 50.5247 1.69164Z" fill="#CCCCCC"/>
<path fill-rule="evenodd" clip-rule="evenodd" d="M49.3509 2.51756H53.8097V1.69189H50.5246C50.1234 1.95275 49.7319 2.22816 49.3509 2.51756ZM48.3157 3.36339H53.8097V2.51756H49.3509C48.9961 2.7874 48.6508 3.06951 48.3157 3.36339ZM47.4155 4.20923H52.9189C53.4652 3.95276 53.8101 3.84684 53.8101 3.84684V3.36339H48.3161C48.0062 3.63489 47.7059 3.917 47.4155 4.20923Z" fill="#CCCCCC"/>
<path fill-rule="evenodd" clip-rule="evenodd" d="M46.628 5.05472H51.4167C51.8964 4.737 52.3984 4.45419 52.9186 4.2085H47.4153C47.1437 4.48191 46.8811 4.76413 46.628 5.05472ZM45.9393 5.90056H50.2814C50.6435 5.59749 51.0226 5.31522 51.4167 5.05511H46.628C46.3893 5.32937 46.1597 5.61133 45.9393 5.90056Z" fill="#CCCCCC"/>
<path fill-rule="evenodd" clip-rule="evenodd" d="M45.3345 6.74623H49.3681C49.6579 6.4488 49.9627 6.16648 50.2815 5.90039H45.9394C45.7288 6.17579 45.527 6.45788 45.3345 6.74623ZM44.8177 7.57189H48.6348C48.8666 7.28553 49.1114 7.01002 49.3685 6.74623H45.3349C45.1564 7.01201 44.9845 7.2871 44.8177 7.57189Z" fill="#CCCCCC"/>
<path fill-rule="evenodd" clip-rule="evenodd" d="M44.3562 8.41761H48.0081C48.2046 8.12671 48.4137 7.8445 48.6347 7.57178H44.8176C44.6556 7.84918 44.5018 8.13124 44.3562 8.41761ZM43.9578 9.26384H47.4886C47.6554 8.96741 47.8288 8.68572 48.0085 8.418H44.3566C44.2169 8.69193 44.0835 8.97362 43.9578 9.26384Z" fill="#CCCCCC"/>
<path fill-rule="evenodd" clip-rule="evenodd" d="M43.6168 10.1095H47.0579C47.1907 9.82225 47.3342 9.5401 47.4882 9.26367H43.9574C43.8362 9.54245 43.7226 9.8245 43.6168 10.1095Z" fill="#CCCCCC"/>
<path fill-rule="evenodd" clip-rule="evenodd" d="M43.3299 10.9547H46.7059C46.8149 10.6622 46.9325 10.3797 47.0574 10.1089H43.6162C43.515 10.3844 43.4195 10.6664 43.3299 10.9547ZM43.0983 11.7804H46.4265C46.513 11.496 46.6062 11.2209 46.7063 10.9547H43.3303C43.2457 11.2279 43.1683 11.5032 43.0983 11.7804Z" fill="#CCCCCC"/>
<path fill-rule="evenodd" clip-rule="evenodd" d="M42.9051 12.6266H46.2031C46.2706 12.336 46.3447 12.0539 46.4266 11.7808H43.0983C43.0268 12.061 42.9624 12.3431 42.9051 12.6266ZM42.7573 13.4724H46.0331C46.0824 13.1822 46.1391 12.9005 46.2031 12.6266H42.9051C42.8496 12.9032 42.8003 13.1853 42.7573 13.4724Z" fill="#CCCCCC"/>
<path fill-rule="evenodd" clip-rule="evenodd" d="M42.651 14.318H45.9141C45.9467 14.0286 45.987 13.7465 46.0332 13.4722H42.7573C42.7153 13.7533 42.6799 14.0353 42.651 14.318ZM42.5808 15.1638H45.8415C45.859 14.8752 45.883 14.5931 45.9145 14.318H42.6514C42.6217 14.5994 42.5981 14.8814 42.5808 15.1638ZM42.5521 15.9895H45.8113C45.8151 15.7086 45.8248 15.4331 45.8415 15.1642H42.5808C42.5656 15.4391 42.556 15.7142 42.5521 15.9895Z" fill="#CCCCCC"/>
<path fill-rule="evenodd" clip-rule="evenodd" d="M42.554 16.8351H45.8201C45.8122 16.6338 45.8082 16.4324 45.8081 16.231C45.8081 16.1499 45.8097 16.07 45.8112 15.9893H42.552C42.5505 16.1029 42.5474 16.2166 42.5474 16.3319C42.5474 16.5018 42.5505 16.6694 42.554 16.8351ZM50.5491 16.8351H53.8098V16.3319H50.5491V16.8351Z" fill="#CCCCCC"/>
<path fill-rule="evenodd" clip-rule="evenodd" d="M42.5975 17.6821H45.8795C45.8519 17.4005 45.8322 17.1182 45.8206 16.8354H42.5544C42.5625 17.1226 42.5769 17.4046 42.5975 17.6821ZM50.5491 17.6821H53.8098V16.8354H50.5491V17.6821Z" fill="#CCCCCC"/>
<path fill-rule="evenodd" clip-rule="evenodd" d="M42.6762 18.528H45.9894C45.944 18.2472 45.9074 17.9651 45.8795 17.6821H42.5975C42.6176 17.9685 42.6436 18.2513 42.6762 18.528ZM50.5491 18.528H53.8099V17.6821H50.5491V18.528Z" fill="#CCCCCC"/>
<path fill-rule="evenodd" clip-rule="evenodd" d="M42.8012 19.3732H46.1531C46.0897 19.093 46.0351 18.8109 45.9894 18.5273H42.6763C42.7112 18.8149 42.7535 19.0965 42.8012 19.3732ZM50.5491 19.3732H53.8099V18.5273H50.5491V19.3732Z" fill="#CCCCCC"/>
<path fill-rule="evenodd" clip-rule="evenodd" d="M42.9703 20.2189H46.3758C46.2922 19.9395 46.218 19.6574 46.1531 19.373H42.8011C42.8512 19.6609 42.9075 19.943 42.9703 20.2189ZM50.5491 20.2189H53.8098V19.373H50.5491V20.2189Z" fill="#CCCCCC"/>
<path fill-rule="evenodd" clip-rule="evenodd" d="M43.1803 21.0445H46.6533C46.5513 20.7727 46.4588 20.4974 46.3759 20.2192H42.9704C43.034 20.5005 43.1035 20.7756 43.1803 21.0445ZM50.5492 21.0445H53.8099V20.2192H50.5492V21.0445ZM43.4461 21.8911H47.0056C46.8783 21.6131 46.7607 21.3308 46.6533 21.0445H43.1803C43.2622 21.3332 43.3506 21.616 43.4461 21.8911ZM50.5492 21.8911H53.8099V21.0445H50.5492V21.8911Z" fill="#CCCCCC"/>
<path fill-rule="evenodd" clip-rule="evenodd" d="M43.768 22.7365H47.4334C47.2801 22.46 47.1372 22.1778 47.0051 21.8906H43.4456C43.5468 22.1797 43.6543 22.4614 43.768 22.7365ZM50.549 22.7365H53.8098V21.8906H50.549V22.7365Z" fill="#CCCCCC"/>
<path fill-rule="evenodd" clip-rule="evenodd" d="M44.151 23.5822H47.9476C47.7654 23.307 47.594 23.0248 47.4339 22.7363H43.7684C43.8887 23.0258 44.0168 23.3079 44.151 23.5822ZM50.5491 23.5822H53.8098V22.7363H50.5491V23.5822Z" fill="#CCCCCC"/>
<path fill-rule="evenodd" clip-rule="evenodd" d="M44.5988 24.4279H48.5614C48.3448 24.1548 48.1401 23.8726 47.9476 23.582H44.151C44.2934 23.873 44.4436 24.1543 44.5988 24.4279ZM50.5491 24.4279H53.8098V23.582H50.5491V24.4279Z" fill="#CCCCCC"/>
<path fill-rule="evenodd" clip-rule="evenodd" d="M45.105 25.2535H49.2776C49.0265 24.9894 48.7875 24.714 48.5613 24.4282H44.5987C44.7583 24.7088 44.9272 24.9841 45.105 25.2535ZM50.549 25.2535H53.8098V24.4282H50.549V25.2535Z" fill="#CCCCCC"/>
<path fill-rule="evenodd" clip-rule="evenodd" d="M45.7031 26.0995H50.1817C49.8638 25.8356 49.5619 25.5529 49.2777 25.2529H45.1052C45.2951 25.5417 45.4945 25.824 45.7031 26.0995ZM50.5492 26.0995H53.8099V25.2529H50.5492V26.0995Z" fill="#CCCCCC"/>
<path fill-rule="evenodd" clip-rule="evenodd" d="M46.3902 26.9454H53.8099V26.0996H50.5492V26.3817C50.5492 26.3817 50.4114 26.2886 50.1817 26.0996H45.7031C45.9225 26.3892 46.1517 26.6713 46.3902 26.9454Z" fill="#CCCCCC"/>
<path fill-rule="evenodd" clip-rule="evenodd" d="M47.1804 27.7911H53.8098V26.9453H46.3901C46.6485 27.2425 46.9131 27.5234 47.1804 27.7911Z" fill="#CCCCCC"/>
<path fill-rule="evenodd" clip-rule="evenodd" d="M48.0923 28.6369H53.8099V27.791H47.1805C47.4744 28.0837 47.7785 28.3658 48.0923 28.6369Z" fill="#CCCCCC"/>
<path fill-rule="evenodd" clip-rule="evenodd" d="M49.1488 29.4826H53.8102V28.6367H48.0927C48.4339 28.9319 48.7862 29.214 49.1488 29.4826ZM50.3566 30.3086H53.8098V29.4826H49.1484C49.5405 29.7732 49.9435 30.0487 50.3566 30.3086ZM51.8465 31.1544H53.8102V30.3086H50.357C50.8924 30.6442 51.3968 30.9255 51.8465 31.1544Z" fill="#CCCCCC"/>
<path fill-rule="evenodd" clip-rule="evenodd" d="M53.8099 32.0001V31.1543H51.8462C53.0148 31.7495 53.8099 32.0001 53.8099 32.0001Z" fill="#CCCCCC"/>
<path fill-rule="evenodd" clip-rule="evenodd" d="M59.3517 17.158H61.7321V16.9966H59.3517V17.158ZM64.5132 17.158H66.9937V16.9966H64.5132V17.158ZM59.3517 17.7415H61.7321V17.158H59.3517V17.7415ZM64.5132 17.7415H66.9937V17.158H64.5132V17.7415Z" fill="#CCCCCC"/>
<path fill-rule="evenodd" clip-rule="evenodd" d="M59.3517 18.326H61.7321V17.7417H59.3517V18.326ZM64.5132 18.326H66.9937V17.7417H64.5132V18.326Z" fill="#CCCCCC"/>
<path fill-rule="evenodd" clip-rule="evenodd" d="M59.3517 18.9092H61.7321V18.3257H59.3517V18.9092ZM64.5132 18.9092H66.9937V18.3257H64.5132V18.9092ZM59.3517 19.4936H61.7321V18.9092H59.3517V19.4936ZM64.5132 19.4936H66.9937V18.9092H64.5132V19.4936Z" fill="#CCCCCC"/>
<path fill-rule="evenodd" clip-rule="evenodd" d="M59.3517 20.0785H61.7321V19.4941H59.3517V20.0785ZM64.5132 20.0785H66.9937V19.4941H64.5132V20.0785ZM59.3517 20.6628H61.7321V20.0785H59.3517V20.6628ZM64.5132 20.6628H66.9937V20.0785H64.5132V20.6628Z" fill="#CCCCCC"/>
<path fill-rule="evenodd" clip-rule="evenodd" d="M59.3517 21.2457H61.7321V20.6621H59.3517V21.2457ZM64.5132 21.2457H66.9937V20.6621H64.5132V21.2457ZM59.3517 21.8498H61.7321V21.2457H59.3517V21.8498ZM64.5132 21.8498H66.9937V21.2457H64.5132V21.8498ZM59.3517 22.4341H61.7321V21.8498H59.3517V22.4341ZM64.5132 22.4341H66.9937V21.8498H64.5132V22.4341Z" fill="#CCCCCC"/>
<path fill-rule="evenodd" clip-rule="evenodd" d="M59.4102 23.0184H61.9927C61.7812 22.7243 61.732 22.4341 61.732 22.4341H59.3516C59.3516 22.4341 59.3481 22.6696 59.4102 23.0184ZM64.4072 23.0184H66.9521C66.9808 22.8244 66.9909 22.6653 66.9936 22.5629V22.4341H64.5131C64.5131 22.4341 64.5419 22.7243 64.4072 23.0184ZM59.5603 23.602H62.984C62.4816 23.5298 62.1762 23.2729 61.9927 23.0184H59.4102C59.4412 23.1903 59.4882 23.3897 59.5603 23.602ZM63.5606 23.602H66.819C66.885 23.3897 66.9257 23.1903 66.9517 23.0184H64.4068C64.2904 23.2729 64.0503 23.5298 63.5606 23.602Z" fill="#CCCCCC"/>
<path fill-rule="evenodd" clip-rule="evenodd" d="M59.8141 24.1864H66.5835C66.6852 23.9885 66.7616 23.7902 66.819 23.6021H63.5606C63.3694 23.6299 63.1752 23.6299 62.9841 23.6021H59.5604C59.624 23.7898 59.7062 23.9885 59.8141 24.1864Z" fill="#CCCCCC"/>
<path fill-rule="evenodd" clip-rule="evenodd" d="M60.2204 24.7704H66.1963C66.3469 24.5907 66.4768 24.3947 66.5836 24.186H59.8141C59.9276 24.3952 60.0639 24.5911 60.2204 24.7704ZM60.9052 25.3539H65.5309C65.7807 25.1939 66.0051 24.9971 66.1963 24.7704H60.2204C60.4189 24.9973 60.6496 25.1939 60.9052 25.3539Z" fill="#CCCCCC"/>
<path fill-rule="evenodd" clip-rule="evenodd" d="M65.5309 25.3535H60.9052C61.46 25.7019 62.2115 25.9378 63.2324 25.9378C64.2481 25.9378 64.99 25.7023 65.5309 25.3535Z" fill="#CCCCCC"/>
<path fill-rule="evenodd" clip-rule="evenodd" d="M60.8931 4.26948H65.4695C64.9155 3.92029 64.1608 3.68555 63.1326 3.68555C62.1549 3.68516 61.4305 3.92029 60.8931 4.26948ZM60.2285 4.85342H66.1509C65.9539 4.6261 65.7243 4.4293 65.4695 4.26948H60.8931C60.6442 4.43066 60.4203 4.6274 60.2285 4.85342Z" fill="#CCCCCC"/>
<path fill-rule="evenodd" clip-rule="evenodd" d="M59.8308 5.43745H66.5494C66.4384 5.22875 66.3048 5.03292 66.1509 4.85352H60.2285C60.0755 5.03345 59.9422 5.2292 59.8308 5.43745ZM59.5774 6.02139H66.7961C66.7311 5.81983 66.6484 5.62442 66.549 5.43745H59.8304C59.7303 5.62487 59.6457 5.82017 59.5774 6.02139ZM59.4238 6.60572H61.9489C62.1347 6.33373 62.4769 6.08192 63.1121 6.08192C63.7577 6.08192 64.1057 6.33334 64.2928 6.60572H66.9397C66.9067 6.40775 66.8588 6.21255 66.7965 6.02178H59.5778C59.513 6.21261 59.4615 6.40773 59.4238 6.60572Z" fill="#CCCCCC"/>
<path fill-rule="evenodd" clip-rule="evenodd" d="M59.3532 7.18931H61.7375C61.7604 6.98057 61.8329 6.78034 61.9489 6.60537H59.4239C59.373 6.87115 59.3579 7.08105 59.3532 7.18931ZM64.5074 7.18931H66.9937V7.14314C66.988 6.96273 66.97 6.78293 66.9398 6.60498H64.2928C64.448 6.82963 64.4934 7.06825 64.5074 7.18931ZM59.3517 7.79342H61.7321V7.26962C61.7321 7.26962 61.7321 7.23936 61.7375 7.18931H59.3532C59.3509 7.24091 59.3517 7.26962 59.3517 7.26962V7.79342ZM64.5132 7.79342H66.9937V7.18931H64.5074C64.5136 7.23936 64.5136 7.26962 64.5136 7.26962V7.79342H64.5132Z" fill="#CCCCCC"/>
<path fill-rule="evenodd" clip-rule="evenodd" d="M59.3517 8.37778H61.7321V7.79346H59.3517V8.37778ZM64.5132 8.37778H66.9937V7.79346H64.5132V8.37778ZM59.3517 8.96172H61.7321V8.37778H59.3517V8.96172ZM64.5132 8.96172H66.9937V8.37778H64.5132V8.96172Z" fill="#CCCCCC"/>
<path fill-rule="evenodd" clip-rule="evenodd" d="M59.3517 9.54536H61.7321V8.96143H59.3517V9.54536ZM64.5132 9.54536H66.9937V8.96143H64.5132V9.54536ZM59.3517 10.1297H61.7321V9.54575H59.3517V10.1297ZM64.5132 10.1297H66.9937V9.54575H64.5132V10.1297Z" fill="#CCCCCC"/>
<path fill-rule="evenodd" clip-rule="evenodd" d="M59.3517 10.7138H61.7321V10.1299H59.3517V10.7138ZM64.5132 10.7138H66.9937V10.1299H64.5132V10.7138ZM59.3517 11.2978H61.7321V10.7138H59.3517V11.2978ZM64.5132 11.2978H66.9937V10.7138H64.5132V11.2978ZM59.3517 11.8817H61.7321V11.2978H59.3517V11.8817ZM64.5132 11.8817H66.9937V11.2978H64.5132V11.8817Z" fill="#CCCCCC"/>
<path fill-rule="evenodd" clip-rule="evenodd" d="M59.3517 12.4653H61.7321V11.8813H59.3517V12.4653ZM64.5132 12.4653H66.9937V11.8813H64.5132V12.4653Z" fill="#CCCCCC"/>
<path fill-rule="evenodd" clip-rule="evenodd" d="M59.3517 13.0497H61.7321V12.4653H59.3517V13.0497ZM64.5132 13.0497H66.9937V12.4653H64.5132V13.0497Z" fill="#CCCCCC"/>
<path fill-rule="evenodd" clip-rule="evenodd" d="M59.3517 13.6337H61.7321V13.0498H59.3517V13.6337ZM64.5132 13.6337H66.9937V13.0498H64.5132V13.6337ZM59.3517 14.2181H61.7321V13.6341H59.3517V14.2181ZM64.5132 14.2181H66.9937V13.6341H64.5132V14.2181ZM59.3517 14.8222H61.7321V14.2181H59.3517V14.8222ZM64.5132 14.8222H66.9937V14.2181H64.5132V14.8222Z" fill="#CCCCCC"/>
<path fill-rule="evenodd" clip-rule="evenodd" d="M59.3517 15.4057H61.7321V14.8218H59.3517V15.4057ZM64.5132 15.4057H66.9937V14.8218H64.5132V15.4057ZM59.3517 15.9897H61.7321V15.4057H59.3517V15.9897ZM64.5132 15.9897H66.9937V15.4057H64.5132V15.9897Z" fill="#CCCCCC"/>
<path fill-rule="evenodd" clip-rule="evenodd" d="M59.3517 16.5736H61.7321V15.9893H59.3517V16.5736ZM64.5132 16.5736H66.9937V15.9893H64.5132V16.5736ZM66.9937 16.9965V16.5736H64.5132V16.9965H66.9937ZM61.7321 16.5736H59.3517V16.9965H61.7321V16.5736Z" fill="#CCCCCC"/>
<path fill-rule="evenodd" clip-rule="evenodd" d="M19.4386 4.43062H24.0507C23.5098 4.08258 22.766 3.84668 21.7421 3.84668C20.7228 3.84668 19.9802 4.08258 19.4386 4.43062ZM18.772 5.01456H24.7134C24.5234 4.78723 24.2998 4.5903 24.0503 4.43062H19.4386C19.1882 4.59059 18.9635 4.78746 18.772 5.01456Z" fill="#CCCCCC"/>
<path fill-rule="evenodd" clip-rule="evenodd" d="M18.3956 5.5789H25.0855C24.9827 5.37788 24.858 5.18882 24.7138 5.01514H18.772C18.6264 5.18878 18.5002 5.37782 18.3956 5.5789Z" fill="#CCCCCC"/>
<path fill-rule="evenodd" clip-rule="evenodd" d="M18.1555 6.16206H25.3203C25.2598 5.96074 25.1812 5.76529 25.0855 5.57812H18.3957C18.2985 5.76531 18.2182 5.96072 18.1555 6.16206ZM18.0212 6.74639H20.6538C20.835 6.50156 21.1687 6.26294 21.7821 6.26294C22.4149 6.26294 22.7498 6.50156 22.9259 6.74639H25.4487C25.4212 6.54871 25.3784 6.35348 25.3207 6.16245H18.1555C18.0884 6.37702 18.0468 6.57683 18.0212 6.74639Z" fill="#CCCCCC"/>
<path fill-rule="evenodd" clip-rule="evenodd" d="M17.9809 7.31035H20.4416V7.26999C20.4416 7.26999 20.4629 7.0046 20.6538 6.74658H18.0212C17.9735 7.06125 17.9809 7.26999 17.9809 7.26999V7.31035ZM23.1223 7.31035H25.4828V7.14428C25.4788 7.01117 25.4673 6.87839 25.4483 6.74658H22.9255C23.1118 7.0046 23.1223 7.26999 23.1223 7.26999V7.31035ZM17.9809 7.89428H20.4416V7.31035H17.9809V7.89428ZM23.1223 7.89428H25.4828V7.31035H23.1223V7.89428Z" fill="#CCCCCC"/>
<path fill-rule="evenodd" clip-rule="evenodd" d="M17.9809 8.47896H20.4416V7.89502H17.9809V8.47896ZM23.1223 8.47896H25.4828V7.89502H23.1223V8.47896ZM17.9809 9.04272H20.4416V8.47896H17.9809V9.04272ZM23.1223 9.04272H25.4828V8.47896H23.1223V9.04272Z" fill="#CCCCCC"/>
<path fill-rule="evenodd" clip-rule="evenodd" d="M17.9809 9.62593H20.4416V9.04199H17.9809V9.62593ZM23.1223 9.62593H25.4828V9.04199H23.1223V9.62593ZM17.9809 10.1897H20.4416V9.62593H17.9809V10.1897ZM23.1223 10.1897H25.4828V9.62593H23.1223V10.1897Z" fill="#CCCCCC"/>
<path fill-rule="evenodd" clip-rule="evenodd" d="M17.9809 10.7743H20.4416V10.1899H17.9809V10.7743ZM23.1223 10.7743H25.4828V10.1899H23.1223V10.7743ZM17.9809 11.3582H20.4416V10.7743H17.9809V11.3582ZM23.1223 11.3582H25.4828V10.7743H23.1223V11.3582Z" fill="#CCCCCC"/>
<path fill-rule="evenodd" clip-rule="evenodd" d="M17.9809 11.9217H20.4416V11.3579H17.9809V11.9217ZM23.1223 11.9217H25.4828V11.3579H23.1223V11.9217Z" fill="#CCCCCC"/>
<path fill-rule="evenodd" clip-rule="evenodd" d="M17.9809 12.5062H20.4416V11.9219H17.9809V12.5062ZM23.1223 12.5062H25.4828V11.9219H23.1223V12.5062Z" fill="#CCCCCC"/>
<path fill-rule="evenodd" clip-rule="evenodd" d="M17.9809 13.0898H20.4416V12.5059H17.9809V13.0898ZM23.1223 13.0898H25.4828V12.5059H23.1223V13.0898Z" fill="#CCCCCC"/>
<path fill-rule="evenodd" clip-rule="evenodd" d="M17.9809 13.6536H20.4416V13.0898H17.9809V13.6536ZM23.1223 13.6536H25.4828V13.0898H23.1223V13.6536ZM17.9809 14.2375H20.4416V13.6536H17.9809V14.2375ZM23.1223 14.2375H25.4828V13.6536H23.1223V14.2375ZM17.9809 14.8219H20.4416V14.2375H17.9809V14.8219ZM23.1223 14.8219H25.4828V14.2375H23.1223V14.8219Z" fill="#CCCCCC"/>
<path fill-rule="evenodd" clip-rule="evenodd" d="M17.9809 15.3855H20.4416V14.8218H17.9809V15.3855ZM23.1223 15.3855H25.4828V14.8218H23.1223V15.3855ZM17.9809 15.9695H20.4416V15.3855H17.9809V15.9695ZM23.1223 15.9695H25.4828V15.3855H23.1223V15.9695Z" fill="#CCCCCC"/>
<path fill-rule="evenodd" clip-rule="evenodd" d="M17.9809 16.5537H20.4416V15.9697H17.9809V16.5537ZM23.1223 16.5537H25.4828V15.9697H23.1223V16.5537Z" fill="#CCCCCC"/>
<path fill-rule="evenodd" clip-rule="evenodd" d="M17.9809 17.117H20.4416V16.5532H17.9809V17.117ZM23.1223 17.117H25.4828V16.5532H23.1223V17.117ZM17.9809 17.7013H20.4416V17.117H17.9809V17.7013ZM23.1223 17.7013H25.4828V17.117H23.1223V17.7013Z" fill="#CCCCCC"/>
<path fill-rule="evenodd" clip-rule="evenodd" d="M17.9809 18.2654H20.4416V17.7017H17.9809V18.2654ZM23.1223 18.2654H25.4829V17.7017H23.1223V18.2654ZM17.9809 18.8497H20.4416V18.2654H17.9809V18.8497ZM23.1223 18.8497H25.4829V18.2654H23.1223V18.8497ZM14.887 19.4333H25.4829V18.8497H23.1223V18.9906H20.4416V18.8497H17.9809V18.9906H14.5999L14.887 19.4333Z" fill="#CCCCCC"/>
<path fill-rule="evenodd" clip-rule="evenodd" d="M15.2529 19.9981H25.4829V19.4336H14.887L15.2529 19.9981ZM15.6312 20.5817H25.4829V19.9981H15.2529L15.6312 20.5817Z" fill="#CCCCCC"/>
<path fill-rule="evenodd" clip-rule="evenodd" d="M16.0099 21.1655H25.4828V20.5815H15.6312L16.0099 21.1655ZM18.081 21.7296H20.4016V21.4072H23.1824V21.7296H25.4828V21.1655H16.0099L16.1406 21.3672H18.081V21.7296Z" fill="#CCCCCC"/>
<path fill-rule="evenodd" clip-rule="evenodd" d="M18.081 22.3138H20.4016V21.7295H18.081V22.3138ZM23.1824 22.3138H25.4828V21.7295H23.1824V22.3138Z" fill="#CCCCCC"/>
<path fill-rule="evenodd" clip-rule="evenodd" d="M18.081 22.897H20.4016V22.3135H18.081V22.897ZM23.1824 22.897H25.4828V22.3135H23.1824V22.897ZM18.081 23.4608H20.4016V22.897H18.081V23.4608ZM23.1824 23.4608H25.4828V22.897H23.1824V23.4608Z" fill="#CCCCCC"/>
<path fill-rule="evenodd" clip-rule="evenodd" d="M18.081 24.0453H20.4016V23.4609H18.081V24.0453ZM23.1824 24.0453H25.4828V23.4609H23.1824V24.0453ZM18.081 24.6296H20.4016V24.0453H18.081V24.6296ZM23.1824 24.6296H25.4828V24.0453H23.1824V24.6296ZM18.081 25.1933H20.4016V24.6296H18.081V25.1933ZM23.1824 25.1933H25.4828V24.6296H23.1824V25.1933Z" fill="#CCCCCC"/>
<path fill-rule="evenodd" clip-rule="evenodd" d="M18.081 25.7764H20.4016V25.1929H18.081V25.7764ZM23.1824 25.7764H25.4828V25.1929H23.1824V25.7764Z" fill="#CCCCCC"/>
</svg>
